<?xml version="1.0" encoding="UTF-8"?>
<svg xmlns="http://www.w3.org/2000/svg" viewBox="0 0 512 512" role="img" aria-label="Super Chart favicon">
  <defs>
    <linearGradient id="bg" x1="0" x2="1" y1="0" y2="1">
      <stop offset="0%" stop-color="#12B0BF"/>
      <stop offset="100%" stop-color="#0B7C87"/>
    </linearGradient>
    <clipPath id="round">
      <rect x="0" y="0" width="512" height="512" rx="96" ry="96"/>
    </clipPath>
  </defs>

  <!-- Rounded square background -->
  <g clip-path="url(#round)">
    <rect x="0" y="0" width="512" height="512" fill="url(#bg)"/>
  </g>

  <!-- Chart group -->
  <g stroke-linecap="round" stroke-linejoin="round">
    <!-- Soft area under the line -->
    <path d="M 88 420 
             L 160 350 
             L 240 372 
             L 320 270 
             L 400 305 
             L 464 190
             L 464 420 
             L 88 420 Z"
          fill="#ffffff" opacity="0.22"/>

    <!-- Chart polyline -->
    <polyline points="88,420 160,350 240,372 320,270 400,305 464,190"
              fill="none" stroke="#ffffff" stroke-width="20"/>
    
    <!-- Nodes -->
    <circle cx="160" cy="350" r="12" fill="#ffffff"/>
    <circle cx="240" cy="372" r="12" fill="#ffffff"/>
    <circle cx="320" cy="270" r="12" fill="#ffffff"/>
    <circle cx="400" cy="305" r="12" fill="#ffffff"/>
    <circle cx="464" cy="190" r="12" fill="#ffffff"/>

    <!-- Minimal axes -->
    <line x1="88" y1="420" x2="472" y2="420" stroke="#ffffff" stroke-width="16" opacity="0.9"/>
    <line x1="88" y1="120" x2="88" y2="420" stroke="#ffffff" stroke-width="16" opacity="0.9"/>
  </g>
</svg>
